<svg width="40" height="40" viewBox="0 0 40 40" fill="none" xmlns="http://www.w3.org/2000/svg">
<path fill-rule="evenodd" clip-rule="evenodd" d="M16.6667 8.33333C15.7462 8.33333 15 9.07952 15 10V30C15 30.9205 15.7462 31.6667 16.6667 31.6667H23.3333C24.2538 31.6667 25 30.9205 25 30V10C25 9.07952 24.2538 8.33333 23.3333 8.33333H16.6667ZM13.3333 10C13.3333 7.23858 15.5719 5 18.3333 5H21.6667C24.4281 5 26.6667 7.23858 26.6667 10V30C26.6667 32.7614 24.4281 35 21.6667 35H18.3333C15.5719 35 13.3333 32.7614 13.3333 30V10ZM18.3333 28.3333C18.7936 28.3333 19.1667 28.7064 19.1667 29.1667C19.1667 29.6269 18.7936 30 18.3333 30H21.6667C22.127 30 22.5 29.6269 22.5 29.1667C22.5 28.7064 22.127 28.3333 21.6667 28.3333H18.3333Z" fill="white"/>
</svg>
