<svg width="24" height="24" viewBox="0 0 24 24" fill="none" xmlns="http://www.w3.org/2000/svg">
<path d="M22 16.92V19.92C22.0011 20.1985 21.9441 20.4742 21.8325 20.7292C21.7209 20.9842 21.5573 21.2126 21.3522 21.3979C21.1471 21.5832 20.9053 21.7212 20.6441 21.8021C20.3829 21.883 20.1086 21.9049 19.84 21.86C16.7428 21.4986 13.787 20.3341 11.19 18.46C8.77382 16.7922 6.72533 14.5616 5.20999 11.96C3.57999 9.07997 2.49999 5.84997 2.13999 2.67997C2.09503 2.41059 2.11726 2.13552 2.19904 1.87362C2.28082 1.61172 2.41999 1.36947 2.60637 1.16415C2.79275 0.958828 3.02189 0.795437 3.27799 0.684971C3.53408 0.574505 3.81079 0.519531 4.08999 0.523971H7.08999C7.75967 0.506587 8.42019 0.685937 8.97999 1.03397C9.53979 1.38201 9.97159 1.88236 10.22 2.46397L11.9 6.41397C12.1231 6.95286 12.2166 7.53797 12.1733 8.12001C12.13 8.70205 11.9516 9.26388 11.65 9.76397L9.64999 12.76C10.9372 14.8964 12.6036 16.5628 14.74 17.85L17.74 15.85C18.24 15.5484 18.8018 15.37 19.3839 15.3267C19.9659 15.2834 20.551 15.3769 21.09 15.6L25.04 17.28C25.6216 17.5284 26.122 17.9602 26.47 18.52C26.818 19.0798 26.9974 19.7403 26.98 20.41L22 16.92Z" stroke="white" stroke-width="2" stroke-linecap="round" stroke-linejoin="round"/>
</svg>

